<svg xmlns="http://www.w3.org/2000/svg" viewBox="0 -0.5 48 47" shape-rendering="crispEdges">
<metadata>Made with Pixels to Svg https://codepen.io/shshaw/pen/XbxvNj</metadata>
<path stroke="#000000" d="M16 0h2M16 1h4M15 2h2M18 2h4M15 3h2M20 3h4M14 4h2M22 4h4M14 5h2M24 5h4M13 6h2M26 6h4M0 7h8M13 7h2M17 7h8M28 7h4M0 8h1M8 8h1M12 8h2M16 8h1M24 8h1M30 8h4M1 9h1M9 9h1M12 9h2M15 9h1M23 9h1M32 9h4M2 10h1M10 10h3M14 10h1M22 10h1M34 10h4M3 11h1M11 11h3M21 11h1M36 11h4M4 12h1M12 12h1M20 12h1M38 12h4M5 13h1M13 13h1M19 13h1M40 13h4M6 14h1M14 14h1M18 14h1M42 14h4M7 15h1M15 15h1M17 15h1M44 15h4M8 16h1M16 16h1M46 16h2M7 17h1M9 17h1M17 17h1M45 17h2M6 18h1M10 18h1M18 18h7M45 18h2M5 19h1M11 19h1M19 19h1M23 19h1M44 19h2M4 20h1M12 20h1M20 20h1M22 20h1M44 20h2M3 21h1M13 21h1M21 21h1M43 21h2M2 22h1M14 22h1M22 22h1M43 22h2M1 23h1M15 23h1M23 23h1M42 23h2M0 24h1M16 24h1M24 24h1M42 24h2M0 25h18M25 25h1M41 25h2M3 26h2M18 26h9M41 26h2M3 27h2M40 27h2M2 28h2M40 28h2M2 29h2M39 29h2M1 30h2M39 30h2M1 31h4M38 31h2M3 32h4M38 32h2M5 33h4M37 33h2M7 34h4M37 34h2M9 35h4M36 35h2M11 36h4M36 36h2M13 37h4M35 37h2M15 38h4M35 38h2M17 39h4M34 39h2M19 40h4M34 40h2M21 41h4M33 41h2M23 42h4M33 42h2M25 43h4M32 43h2M27 44h4M32 44h2M29 45h4M31 46h2" />
<path stroke="#bfbfbf" d="M17 2h1M17 3h3M16 4h6M16 5h8M15 6h11M15 7h2M25 7h3M14 8h2M25 8h5M14 9h1M26 9h6M13 10h1M28 10h6M30 11h6M21 12h2M32 12h6M23 13h2M34 13h6M25 14h2M36 14h6M18 15h2M27 15h2M38 15h6M20 16h2M29 16h2M40 16h6M22 17h2M31 17h2M42 17h3M25 18h1M33 18h2M44 18h1M26 19h2M35 19h2M28 20h2M37 20h2M22 21h1M30 21h2M39 21h2M23 22h2M32 22h2M41 22h2M25 23h2M34 23h2M27 24h2M36 24h2M29 25h2M38 25h2M5 26h5M11 26h1M13 26h2M31 26h2M40 26h1M5 27h5M15 27h2M24 27h2M33 27h2M4 28h5M10 28h1M17 28h2M26 28h2M35 28h2M4 29h5M10 29h1M19 29h1M28 29h2M37 29h2M3 30h5M9 30h1M11 30h2M5 31h3M13 31h2M23 31h1M33 31h1M8 32h1M15 32h2M34 32h2M27 33h1M36 33h1M31 35h2M33 36h2M31 40h2" />
<path stroke="#cbffff" d="M1 8h7M8 9h1M9 10h1M10 11h1M11 12h1M12 13h1M13 14h1M14 15h1M15 16h1M16 17h1M17 18h1M18 19h1M19 20h1M20 21h1M21 22h1M22 23h1M23 24h1" />
<path stroke="#00ffff" d="M17 8h6M3 9h5M16 9h1M4 10h5M15 10h1M5 11h5M14 11h1M6 12h5M13 12h1M7 13h5M8 14h5M9 15h5M10 16h5M8 17h1M11 17h5M7 18h1M12 18h5M6 19h1M13 19h5M5 20h1M14 20h5M4 21h1M15 21h5M3 22h1M16 22h5M2 23h1M17 23h5M18 24h5" />
<path stroke="#007f7f" d="M23 8h1M22 9h1M21 10h1M20 11h1M19 12h1M18 13h1M17 14h1M16 15h1M1 24h15" />
<path stroke="#00cbcb" d="M2 9h1M17 9h5M3 10h1M16 10h5M4 11h1M15 11h5M5 12h1M14 12h5M6 13h1M14 13h4M7 14h1M15 14h2M8 15h1M9 16h1M10 17h1M8 18h2M11 18h1M7 19h4M12 19h1M20 19h3M6 20h6M13 20h1M21 20h1M5 21h8M14 21h1M4 22h10M15 22h1M3 23h12M16 23h1M17 24h1M18 25h7" />
<path stroke="#767676" d="M24 9h2M26 10h2M28 11h2M30 12h2M32 13h2M34 14h2M36 15h2M38 16h2M40 17h2M42 18h2M10 26h1M10 27h1M9 28h1M9 29h1M8 30h1M8 31h1M7 32h1" />
<path stroke="#ffffff" d="M23 10h3M22 11h6M23 12h7M20 13h3M25 13h7M19 14h6M27 14h7M20 15h7M29 15h7M17 16h3M22 16h7M31 16h7M18 17h4M24 17h7M33 17h7M26 18h7M35 18h7M24 19h2M28 19h7M37 19h7M23 20h5M30 20h7M39 20h5M23 21h7M32 21h7M41 21h2M25 22h7M34 22h7M24 23h1M27 23h7M36 23h6M25 24h2M29 24h7M38 24h4M26 25h3M31 25h7M40 25h1M12 26h1M15 26h3M27 26h4M33 26h7M11 27h4M17 27h7M26 27h7M35 27h5M11 28h6M19 28h7M28 28h7M37 28h3M11 29h8M22 29h3M27 29h1M32 29h5M10 30h1M13 30h7M23 30h2M28 30h2M33 30h6M9 31h4M15 31h4M28 31h1M34 31h4M9 32h6M22 32h2M27 32h2M32 32h2M36 32h2M9 33h8M22 33h1M32 33h4M11 34h8M26 34h2M31 34h6M13 35h8M26 35h1M33 35h3M15 36h8M30 36h3M35 36h1M17 37h8M30 37h5M19 38h8M31 38h4M21 39h8M31 39h3M23 40h8M33 40h1M25 41h8M27 42h6M29 43h3M31 44h1" />
<path stroke="#ff10fd" d="M20 29h2M20 30h2M19 31h3M19 32h2" />
<path stroke="#120efd" d="M25 29h2M25 30h2M24 31h3M17 32h2M24 32h2M19 33h2M23 33h3M21 34h4M23 35h2M25 36h2M27 37h2M29 38h2" />
<path stroke="#ff0302" d="M30 29h2M30 30h2M29 31h3M29 32h2M28 33h3M28 34h2M27 35h3M27 36h2" />
<path stroke="#990aca" d="M22 30h1M22 31h1M21 32h1M21 33h1" />
<path stroke="#04037e" d="M27 30h1M27 31h1M26 32h1M17 33h2M26 33h1M19 34h2M25 34h1M21 35h2M25 35h1M23 36h2M25 37h2M27 38h2M29 39h2" />
<path stroke="#a40120" d="M32 30h1M32 31h1M31 32h1M31 33h1M30 34h1M30 35h1M29 36h1M29 37h1" />
</svg>