<?xml version="1.0" encoding="UTF-8" standalone="no"?>
<svg
   xmlns:dc="http://purl.org/dc/elements/1.1/"
   xmlns:cc="http://creativecommons.org/ns#"
   xmlns:rdf="http://www.w3.org/1999/02/22-rdf-syntax-ns#"
   xmlns:svg="http://www.w3.org/2000/svg"
   xmlns="http://www.w3.org/2000/svg"
   xmlns:sodipodi="http://sodipodi.sourceforge.net/DTD/sodipodi-0.dtd"
   xmlns:inkscape="http://www.inkscape.org/namespaces/inkscape"
   width="2086.9441"
   height="2000"
   xml:space="preserve"
   overflow="hidden"
   version="1.1"
   id="svg1330"
   sodipodi:docname="Microsoft_Word_1995.svg"
   inkscape:version="1.0.2-2 (e86c870879, 2021-01-15)"><metadata
     id="metadata1334"><rdf:RDF><cc:Work
         rdf:about=""><dc:format>image/svg+xml</dc:format><dc:type
           rdf:resource="http://purl.org/dc/dcmitype/StillImage" /><dc:title></dc:title></cc:Work></rdf:RDF></metadata><sodipodi:namedview
     pagecolor="#ffffff"
     bordercolor="#666666"
     borderopacity="1"
     objecttolerance="10"
     gridtolerance="10"
     guidetolerance="10"
     inkscape:pageopacity="0"
     inkscape:pageshadow="2"
     inkscape:window-width="1920"
     inkscape:window-height="1009"
     id="namedview1332"
     showgrid="false"
     inkscape:zoom="0.36"
     inkscape:cx="1011.2069"
     inkscape:cy="993.41675"
     inkscape:window-x="-8"
     inkscape:window-y="-8"
     inkscape:window-maximized="1"
     inkscape:current-layer="svg1330" /><defs
     id="defs676"><clipPath
       id="clip0"><rect
         x="-53"
         y="26"
         width="24"
         height="23"
         id="rect673" /></clipPath></defs><g
     clip-path="url(#clip0)"
     transform="matrix(86.956522,0,0,86.956522,4608.6957,-2260.8695)"
     id="g1328"><path
       d="M 20.3933,18.0933 H 21.39 v 0.5111 h -0.9967 z"
       fill="#808080"
       fill-rule="evenodd"
       transform="matrix(1.0219,0,0,1,-61.8531,26)"
       id="path678" /><path
       d="m 21.39,18.0933 h 0.9711 v 0.5111 H 21.39 Z"
       fill="#ffffff"
       fill-rule="evenodd"
       transform="matrix(1.0219,0,0,1,-61.8531,26)"
       id="path680" /><path
       d="m 21.8756,17.6078 h 0.9711 v 0.4855 h -0.9711 z"
       fill="#808080"
       fill-rule="evenodd"
       transform="matrix(1.0219,0,0,1,-61.8531,26)"
       id="path682" /><path
       d="m 19.4222,17.6078 h 0.9711 v 0.4855 h -0.9711 z"
       fill="#808080"
       fill-rule="evenodd"
       transform="matrix(1.0219,0,0,1,-61.8531,26)"
       id="path684" /><path
       d="M 32.1489,7.33915 V 8.31726 H 31.6587 V 9.2976 h -0.4899 v 0.9781 h -0.4901 v 0.9803 h -0.4879 v 0.9781 h -0.4901 v 0.9804 h -0.4899 v 0.9781 h -0.4902 v 0.9803 h -0.4878 v 0.9781 h -0.4902 v 0.9781 h -0.4899 v 0.9759 h -0.4879 v 0.9781 h -0.4855 v 0.9804 h -0.4902 v 0.978 h -0.4878 v 0.9804 H 24.8112 V 23 H 23.831 V 22.5098 H 22.8531 V 22.0219 H 21.873 V 21.5317 H 20.8951 V 21.0415 H 19.9149 V 20.5514 H 18.937 V 20.0635 H 17.9591 V 19.5733 H 16.979 V 19.0831 H 16.001 V 18.593 H 15.0209 V 18.105 H 14.0474 V 17.6193 H 13.0673 V 17.1291 H 12.0894 V 16.6412 H 11.1115 V 16.151 H 10.1313 V 15.6609 H 9.15341 V 14.6827 H 9.64124 V 13.7024 H 10.1313 V 12.7243 H 9.15341 V 4.89499 H 8.66333 V 3.42672 h 3.91607 v 1.46827 h -0.9801 v 3.42227 h 0.4901 V 9.2976 h -0.4901 v 0.48793 h -0.4878 v -5.3785 h 0.9779 V 3.91687 H 9.15341 v 0.49016 h 0.48783 v 7.82707 h 1.95806 v 0.4902 h -0.4878 v 0.9781 h -0.4901 v 0.9803 h -0.4901 v 0.4902 h 0.9802 v 0.488 h 0.9779 v 0.4901 h 0.9779 v 0.4902 h 0.9801 v 0.4879 h 0.9735 v 0.4902 h 0.9801 v 0.4857 h 0.978 v 0.488 h 0.9801 v 0.4901 h 0.9779 v 0.4902 h 0.9779 v 0.4902 h 0.9802 v 0.4879 h 0.9779 v 0.4901 h 0.9801 v 0.4902 h 0.9779 v 0.4902 h 0.4901 v -0.9804 h 0.4901 v -0.978 h 0.4901 v -0.9804 h 0.4878 V 18.105 h 0.4902 v -0.9759 h 0.4855 V 16.151 h 0.4879 v -0.9781 h 0.4899 v -0.9803 h 0.4902 v -0.9781 h 0.4878 v -0.9804 h 0.4902 V 11.256 h 0.4899 v -0.9803 h 0.4901 V 9.2976 h 0.4879 V 8.31726 h 0.4901 V 7.8271 h -0.978 V 7.33915 h -0.98 V 6.84899 h -0.978 V 6.35881 H 27.2527 V 5.87532 H 26.2793 V 5.38514 h -0.978 V 4.89499 H 24.3211 V 4.40703 H 23.3432 V 3.91687 H 22.3631 V 3.42672 h -0.978 V 2.93654 H 20.405 V 2.4486 H 19.4271 V 1.95844 H 18.4469 V 1.46827 H 17.469 V 0.978111 h -0.49 V 1.95844 h -0.4901 v 0.9781 H 16.001 v 0.49018 h 0.4879 V 8.31726 H 16.979 V 9.2976 H 16.4889 V 9.78553 H 16.001 V 3.91687 H 14.5375 V 4.40703 H 14.0474 V 3.42672 h 0.9735 V 2.93654 h 0.4901 v -0.9781 h 0.49 V 0.978111 h 0.4879 V 0 h 0.9801 v 0.490163 h 0.9779 v 0.487948 h 0.9802 V 1.46827 h 0.9779 v 0.49017 h 0.9801 V 2.4486 h 0.978 v 0.48794 h 0.9801 v 0.49018 h 0.9779 v 0.49015 h 0.9802 v 0.49016 h 0.978 v 0.48796 h 0.9734 v 0.49015 h 0.9801 v 0.49018 h 0.978 v 0.48349 h 0.98 v 0.49018 h 0.978 v 0.49016 z"
       fill-rule="evenodd"
       transform="matrix(1.0219,0,0,1,-61.8531,26)"
       id="path686" /><path
       d="m 23.3322,17.1222 h 0.9967 v 0.4856 h -0.9967 z"
       fill="#808080"
       fill-rule="evenodd"
       transform="matrix(1.0219,0,0,1,-61.8531,26)"
       id="path688" /><path
       d="m 18.4511,17.1222 h 0.9711 v 0.4856 h -0.9711 z"
       fill="#808080"
       fill-rule="evenodd"
       transform="matrix(1.0219,0,0,1,-61.8531,26)"
       id="path690" /><path
       d="m 22.3611,16.6367 h 0.9711 v 0.4855 h -0.9711 z"
       fill="#808080"
       fill-rule="evenodd"
       transform="matrix(1.0219,0,0,1,-61.8531,26)"
       id="path692" /><path
       d="m 19.9078,16.6367 h 0.9711 v 0.4855 h -0.9711 z"
       fill="#808080"
       fill-rule="evenodd"
       transform="matrix(1.0219,0,0,1,-61.8531,26)"
       id="path694" /><path
       d="m 17.4544,16.6367 h 0.9967 v 0.4855 h -0.9967 z"
       fill="#808080"
       fill-rule="evenodd"
       transform="matrix(1.0219,0,0,1,-61.8531,26)"
       id="path696" /><path
       d="m 18.9367,16.1511 h 0.9711 v 0.4856 h -0.9711 z"
       fill="#808080"
       fill-rule="evenodd"
       transform="matrix(1.0219,0,0,1,-61.8531,26)"
       id="path698" /><path
       d="m 16.4833,16.1511 h 0.9711 v 0.4856 h -0.9711 z"
       fill="#808080"
       fill-rule="evenodd"
       transform="matrix(1.0219,0,0,1,-61.8531,26)"
       id="path700" /><path
       d="M 20.3933,15.6656 H 21.39 v 0.4855 h -0.9967 z"
       fill="#808080"
       fill-rule="evenodd"
       transform="matrix(1.0219,0,0,1,-61.8531,26)"
       id="path702" /><path
       d="m 17.9656,15.6656 h 0.9711 v 0.4855 h -0.9711 z"
       fill="#808080"
       fill-rule="evenodd"
       transform="matrix(1.0219,0,0,1,-61.8531,26)"
       id="path704" /><path
       d="m 15.5122,15.6656 h 0.9711 v 0.4855 h -0.9711 z"
       fill="#808080"
       fill-rule="evenodd"
       transform="matrix(1.0219,0,0,1,-61.8531,26)"
       id="path706" /><path
       d="m 19.4222,15.18 h 0.9711 v 0.4856 h -0.9711 z"
       fill="#808080"
       fill-rule="evenodd"
       transform="matrix(1.0219,0,0,1,-61.8531,26)"
       id="path708" /><path
       d="m 16.9689,15.18 h 0.9967 v 0.4856 h -0.9967 z"
       fill="#808080"
       fill-rule="evenodd"
       transform="matrix(1.0219,0,0,1,-61.8531,26)"
       id="path710" /><path
       d="m 16.4833,15.6656 h 0.9711 v 0.4855 h -0.9711 z"
       fill="#ffffff"
       fill-rule="evenodd"
       transform="matrix(1.0219,0,0,1,-61.8531,26)"
       id="path712" /><path
       d="m 18.4511,14.6944 h 0.9711 V 15.18 h -0.9711 z"
       fill="#808080"
       fill-rule="evenodd"
       transform="matrix(1.0219,0,0,1,-61.8531,26)"
       id="path714" /><path
       d="m 15.9978,14.6944 h 0.9711 V 15.18 h -0.9711 z"
       fill="#808080"
       fill-rule="evenodd"
       transform="matrix(1.0219,0,0,1,-61.8531,26)"
       id="path716" /><path
       d="m 12.0878,8.81667 h 0.4855 v 0.97111 h -0.4855 z"
       fill="#00ffff"
       fill-rule="evenodd"
       transform="matrix(1.0219,0,0,1,-61.8531,26)"
       id="path718" /><path
       d="m 17.4544,6.36333 h 0.5112 v 0.97111 h -0.5112 z"
       fill-rule="evenodd"
       transform="matrix(1.0219,0,0,1,-61.8531,26)"
       id="path720" /><path
       d="m 19.4222,6.84889 h 0.4856 V 7.82 h -0.4856 z"
       fill="#cbcbcb"
       fill-rule="evenodd"
       transform="matrix(1.0219,0,0,1,-61.8531,26)"
       id="path722" /><path
       d="m 19.4222,7.82 h 0.9711 v 0.48556 h -0.9711 z"
       fill="#808080"
       fill-rule="evenodd"
       transform="matrix(1.0219,0,0,1,-61.8531,26)"
       id="path724" /><path
       d="m 18.4511,5.87778 h 0.4856 v 0.97111 h -0.4856 z"
       fill="#00ffff"
       fill-rule="evenodd"
       transform="matrix(1.0219,0,0,1,-61.8531,26)"
       id="path726" /><path
       d="m 19.9078,6.84889 h 0.9711 v 0.48555 h -0.9711 z"
       fill="#808080"
       fill-rule="evenodd"
       transform="matrix(1.0219,0,0,1,-61.8531,26)"
       id="path728" /><path
       d="M 20.3933,5.87778 H 21.39 v 0.48555 h -0.9967 z"
       fill="#808080"
       fill-rule="evenodd"
       transform="matrix(1.0219,0,0,1,-61.8531,26)"
       id="path730" /><path
       d="M 20.9044,3.91 V 4.40251 H 19.9233 V 4.89276 H 19.435 V 5.87778 H 18.9444 V 4.40251 H 17.9656 V 3.91 Z"
       fill="#00ffff"
       fill-rule="evenodd"
       transform="matrix(1.0219,0,0,1,-61.8531,26)"
       id="path732" /><path
       d="m 21.8756,7.82 h 0.9711 v 0.48556 h -0.9711 z"
       fill="#808080"
       fill-rule="evenodd"
       transform="matrix(1.0219,0,0,1,-61.8531,26)"
       id="path734" /><path
       d="m 18.9367,6.36333 h 0.4855 v 0.97111 h -0.4855 z"
       fill-rule="evenodd"
       transform="matrix(1.0219,0,0,1,-61.8531,26)"
       id="path736" /><path
       d="m 18.9367,5.87778 h 0.4855 v 0.48555 h -0.4855 z"
       fill="#0099cc"
       fill-rule="evenodd"
       transform="matrix(1.0219,0,0,1,-61.8531,26)"
       id="path738" /><path
       d="m 19.4222,5.39222 h 0.4856 v 0.97111 h -0.4856 z"
       fill-rule="evenodd"
       transform="matrix(1.0219,0,0,1,-61.8531,26)"
       id="path740" /><path
       d="m 19.4222,4.90667 h 0.4856 v 0.48555 h -0.4856 z"
       fill="#0099cc"
       fill-rule="evenodd"
       transform="matrix(1.0219,0,0,1,-61.8531,26)"
       id="path742" /><path
       d="m 21.39,3.42444 v 1.47528 h -0.985 v 0.4925 H 19.9125 V 4.40946 h 0.985 V 3.91695 h -2.9506 v 0.49251 h 0.9828 V 5.39222 H 18.4372 V 4.89972 H 17.4544 V 3.42444 Z"
       fill-rule="evenodd"
       transform="matrix(1.0219,0,0,1,-61.8531,26)"
       id="path744" /><path
       d="M 24.3289,12.7267 H 25.3 v 0.4855 h -0.9711 z"
       fill="#808080"
       fill-rule="evenodd"
       transform="matrix(1.0219,0,0,1,-61.8531,26)"
       id="path746" /><path
       d="m 23.3322,12.2411 h 0.9967 v 0.4856 h -0.9967 z"
       fill="#808080"
       fill-rule="evenodd"
       transform="matrix(1.0219,0,0,1,-61.8531,26)"
       id="path748" /><path
       d="m 22.3611,11.7556 h 0.9711 v 0.4855 h -0.9711 z"
       fill="#808080"
       fill-rule="evenodd"
       transform="matrix(1.0219,0,0,1,-61.8531,26)"
       id="path750" /><path
       d="m 21.39,11.2444 h 0.9711 v 0.5112 H 21.39 Z"
       fill="#808080"
       fill-rule="evenodd"
       transform="matrix(1.0219,0,0,1,-61.8531,26)"
       id="path752" /><path
       d="m 25.3,13.2122 h 0.9711 v 0.4856 H 25.3 Z"
       fill="#808080"
       fill-rule="evenodd"
       transform="matrix(1.0219,0,0,1,-61.8531,26)"
       id="path754" /><path
       d="m 21.39,15.6656 h 0.9711 v 0.4855 H 21.39 Z"
       fill="#ffffff"
       fill-rule="evenodd"
       transform="matrix(1.0219,0,0,1,-61.8531,26)"
       id="path756" /><path
       d="M 20.3933,15.18 H 21.39 v 0.4856 h -0.9967 z"
       fill="#ffffff"
       fill-rule="evenodd"
       transform="matrix(1.0219,0,0,1,-61.8531,26)"
       id="path758" /><path
       d="m 23.8178,13.2122 h 0.9966 v 0.4856 h -0.9966 z"
       fill="#ffffff"
       fill-rule="evenodd"
       transform="matrix(1.0219,0,0,1,-61.8531,26)"
       id="path760" /><path
       d="m 23.3322,14.1833 h 0.9967 v 0.5111 h -0.9967 z"
       fill="#ffffff"
       fill-rule="evenodd"
       transform="matrix(1.0219,0,0,1,-61.8531,26)"
       id="path762" /><path
       d="m 22.8467,18.0933 h 0.9711 v 0.5111 h -0.9711 z"
       fill="#808080"
       fill-rule="evenodd"
       transform="matrix(1.0219,0,0,1,-61.8531,26)"
       id="path764" /><path
       d="m 23.8178,12.7267 h 0.5111 v 0.4855 h -0.5111 z"
       fill="#cbcbcb"
       fill-rule="evenodd"
       transform="matrix(1.0219,0,0,1,-61.8531,26)"
       id="path766" /><path
       d="m 22.8467,12.7267 h 0.9711 v 0.4855 h -0.9711 z"
       fill="#ffffff"
       fill-rule="evenodd"
       transform="matrix(1.0219,0,0,1,-61.8531,26)"
       id="path768" /><path
       d="m 22.3611,13.6978 h 0.9711 v 0.4855 h -0.9711 z"
       fill="#ffffff"
       fill-rule="evenodd"
       transform="matrix(1.0219,0,0,1,-61.8531,26)"
       id="path770" /><path
       d="m 22.8467,15.18 h 0.9711 v 0.4856 h -0.9711 z"
       fill="#ffffff"
       fill-rule="evenodd"
       transform="matrix(1.0219,0,0,1,-61.8531,26)"
       id="path772" /><path
       d="m 22.3611,16.1511 h 0.9711 v 0.4856 h -0.9711 z"
       fill="#ffffff"
       fill-rule="evenodd"
       transform="matrix(1.0219,0,0,1,-61.8531,26)"
       id="path774" /><path
       d="m 21.8756,17.1222 h 0.9711 v 0.4856 h -0.9711 z"
       fill="#ffffff"
       fill-rule="evenodd"
       transform="matrix(1.0219,0,0,1,-61.8531,26)"
       id="path776" /><path
       d="m 22.3611,6.84889 h 0.9711 v 0.48555 h -0.9711 z"
       fill="#808080"
       fill-rule="evenodd"
       transform="matrix(1.0219,0,0,1,-61.8531,26)"
       id="path778" /><path
       d="m 21.8756,7.33444 h 0.9711 V 7.82 h -0.9711 z"
       fill="#ffffff"
       fill-rule="evenodd"
       transform="matrix(1.0219,0,0,1,-61.8531,26)"
       id="path780" /><path
       d="m 21.39,6.36333 h 0.9711 V 6.84889 H 21.39 Z"
       fill="#808080"
       fill-rule="evenodd"
       transform="matrix(1.0219,0,0,1,-61.8531,26)"
       id="path782" /><path
       d="m 21.39,8.30556 h 0.9711 V 8.81667 H 21.39 Z"
       fill="#ffffff"
       fill-rule="evenodd"
       transform="matrix(1.0219,0,0,1,-61.8531,26)"
       id="path784" /><path
       d="m 21.39,13.2122 h 0.9711 v 0.4856 H 21.39 Z"
       fill="#ffffff"
       fill-rule="evenodd"
       transform="matrix(1.0219,0,0,1,-61.8531,26)"
       id="path786" /><path
       d="m 21.8756,14.6944 h 0.9711 V 15.18 h -0.9711 z"
       fill="#ffffff"
       fill-rule="evenodd"
       transform="matrix(1.0219,0,0,1,-61.8531,26)"
       id="path788" /><path
       d="m 22.8467,12.2411 h 0.4855 v 0.4856 h -0.4855 z"
       fill="#cbcbcb"
       fill-rule="evenodd"
       transform="matrix(1.0219,0,0,1,-61.8531,26)"
       id="path790" /><path
       d="m 21.8756,12.2411 h 0.9711 v 0.4856 h -0.9711 z"
       fill="#ffffff"
       fill-rule="evenodd"
       transform="matrix(1.0219,0,0,1,-61.8531,26)"
       id="path792" /><path
       d="m 21.39,16.1511 h 0.9711 v 0.4856 H 21.39 Z"
       fill="#808080"
       fill-rule="evenodd"
       transform="matrix(1.0219,0,0,1,-61.8531,26)"
       id="path794" /><path
       d="m 20.9044,17.1222 h 0.9712 v 0.4856 h -0.9712 z"
       fill="#808080"
       fill-rule="evenodd"
       transform="matrix(1.0219,0,0,1,-61.8531,26)"
       id="path796" /><path
       d="m 21.8756,16.6367 h 0.4855 v 0.4855 h -0.4855 z"
       fill="#cbcbcb"
       fill-rule="evenodd"
       transform="matrix(1.0219,0,0,1,-61.8531,26)"
       id="path798" /><path
       d="m 20.9044,16.6367 h 0.9712 v 0.4855 h -0.9712 z"
       fill="#ffffff"
       fill-rule="evenodd"
       transform="matrix(1.0219,0,0,1,-61.8531,26)"
       id="path800" /><path
       d="m 20.9044,9.30222 h 0.9712 v 0.48556 h -0.9712 z"
       fill="#ffffff"
       fill-rule="evenodd"
       transform="matrix(1.0219,0,0,1,-61.8531,26)"
       id="path802" /><path
       d="m 20.9044,7.33444 h 0.9712 V 7.82 h -0.9712 z"
       fill="#808080"
       fill-rule="evenodd"
       transform="matrix(1.0219,0,0,1,-61.8531,26)"
       id="path804" /><path
       d="m 20.9044,14.1833 h 0.9712 v 0.5111 h -0.9712 z"
       fill="#ffffff"
       fill-rule="evenodd"
       transform="matrix(1.0219,0,0,1,-61.8531,26)"
       id="path806" /><path
       d="M 20.3933,10.2733 H 21.39 v 0.4856 h -0.9967 z"
       fill="#ffffff"
       fill-rule="evenodd"
       transform="matrix(1.0219,0,0,1,-61.8531,26)"
       id="path808" /><path
       d="m 21.8756,6.84889 h 0.4855 v 0.48555 h -0.4855 z"
       fill="#cbcbcb"
       fill-rule="evenodd"
       transform="matrix(1.0219,0,0,1,-61.8531,26)"
       id="path810" /><path
       d="m 20.9044,6.84889 h 0.9712 v 0.48555 h -0.9712 z"
       fill="#ffffff"
       fill-rule="evenodd"
       transform="matrix(1.0219,0,0,1,-61.8531,26)"
       id="path812" /><path
       d="m 21.39,7.82 h 0.4856 V 8.30556 H 21.39 Z"
       fill="#cbcbcb"
       fill-rule="evenodd"
       transform="matrix(1.0219,0,0,1,-61.8531,26)"
       id="path814" /><path
       d="M 20.3933,7.82 H 21.39 v 0.48556 h -0.9967 z"
       fill="#ffffff"
       fill-rule="evenodd"
       transform="matrix(1.0219,0,0,1,-61.8531,26)"
       id="path816" /><path
       d="M 20.9044,16.1511 H 21.39 v 0.4856 h -0.4856 z"
       fill="#cbcbcb"
       fill-rule="evenodd"
       transform="matrix(1.0219,0,0,1,-61.8531,26)"
       id="path818" /><path
       d="m 19.9078,16.1511 h 0.9711 v 0.4856 h -0.9711 z"
       fill="#ffffff"
       fill-rule="evenodd"
       transform="matrix(1.0219,0,0,1,-61.8531,26)"
       id="path820" /><path
       d="m 21.39,17.6078 h 0.4856 v 0.4855 H 21.39 Z"
       fill="#cbcbcb"
       fill-rule="evenodd"
       transform="matrix(1.0219,0,0,1,-61.8531,26)"
       id="path822" /><path
       d="M 20.3933,17.6078 H 21.39 v 0.4855 h -0.9967 z"
       fill="#ffffff"
       fill-rule="evenodd"
       transform="matrix(1.0219,0,0,1,-61.8531,26)"
       id="path824" /><path
       d="m 19.9078,8.81667 h 0.9711 v 0.48555 h -0.9711 z"
       fill="#ffffff"
       fill-rule="evenodd"
       transform="matrix(1.0219,0,0,1,-61.8531,26)"
       id="path826" /><path
       d="m 19.9078,13.6978 h 0.9711 v 0.4855 h -0.9711 z"
       fill="#ffffff"
       fill-rule="evenodd"
       transform="matrix(1.0219,0,0,1,-61.8531,26)"
       id="path828" /><path
       d="m 19.4222,9.78778 h 0.9711 v 0.48552 h -0.9711 z"
       fill="#ffffff"
       fill-rule="evenodd"
       transform="matrix(1.0219,0,0,1,-61.8531,26)"
       id="path830" /><path
       d="M 20.9044,6.36333 H 21.39 v 0.48556 h -0.4856 z"
       fill="#cbcbcb"
       fill-rule="evenodd"
       transform="matrix(1.0219,0,0,1,-61.8531,26)"
       id="path832" /><path
       d="m 20.3933,6.36333 h 0.5111 v 0.48556 h -0.5111 z"
       fill="#ffffff"
       fill-rule="evenodd"
       transform="matrix(1.0219,0,0,1,-61.8531,26)"
       id="path834" /><path
       d="m 20.3933,7.33444 h 0.5111 V 7.82 h -0.5111 z"
       fill="#cbcbcb"
       fill-rule="evenodd"
       transform="matrix(1.0219,0,0,1,-61.8531,26)"
       id="path836" /><path
       d="m 19.9078,7.33444 h 0.4855 V 7.82 h -0.4855 z"
       fill="#ffffff"
       fill-rule="evenodd"
       transform="matrix(1.0219,0,0,1,-61.8531,26)"
       id="path838" /><path
       d="m 19.4222,8.30556 h 0.4856 v 0.51111 h -0.4856 z"
       fill="#ffffff"
       fill-rule="evenodd"
       transform="matrix(1.0219,0,0,1,-61.8531,26)"
       id="path840" /><path
       d="m 19.4222,12.2411 h 0.9711 v 0.4856 h -0.9711 z"
       fill="#ffffff"
       fill-rule="evenodd"
       transform="matrix(1.0219,0,0,1,-61.8531,26)"
       id="path842" /><path
       d="m 19.4222,14.6944 h 0.9711 V 15.18 h -0.9711 z"
       fill="#ffffff"
       fill-rule="evenodd"
       transform="matrix(1.0219,0,0,1,-61.8531,26)"
       id="path844" /><path
       d="m 20.3933,17.1222 h 0.5111 v 0.4856 h -0.5111 z"
       fill="#cbcbcb"
       fill-rule="evenodd"
       transform="matrix(1.0219,0,0,1,-61.8531,26)"
       id="path846" /><path
       d="m 19.4222,17.1222 h 0.9711 v 0.4856 h -0.9711 z"
       fill="#ffffff"
       fill-rule="evenodd"
       transform="matrix(1.0219,0,0,1,-61.8531,26)"
       id="path848" /><path
       d="m 18.9367,10.7589 h 0.9711 v 0.4855 h -0.9711 z"
       fill="#ffffff"
       fill-rule="evenodd"
       transform="matrix(1.0219,0,0,1,-61.8531,26)"
       id="path850" /><path
       d="m 18.9367,7.33444 h 0.4855 V 7.82 h -0.4855 z"
       fill="#b2b2b2"
       fill-rule="evenodd"
       transform="matrix(1.0219,0,0,1,-61.8531,26)"
       id="path852" /><path
       d="m 18.4511,11.7556 h 0.9711 v 0.4855 h -0.9711 z"
       fill="#ffffff"
       fill-rule="evenodd"
       transform="matrix(1.0219,0,0,1,-61.8531,26)"
       id="path854" /><path
       d="M 20.3933,12.7267 H 21.39 v 0.4855 h -0.9967 z"
       fill="#ffffff"
       fill-rule="evenodd"
       transform="matrix(1.0219,0,0,1,-61.8531,26)"
       id="path856" /><path
       d="m 18.9367,13.2122 h 0.9711 v 0.4856 h -0.9711 z"
       fill="#ffffff"
       fill-rule="evenodd"
       transform="matrix(1.0219,0,0,1,-61.8531,26)"
       id="path858" /><path
       d="m 19.9078,15.6656 h 0.4855 v 0.4855 h -0.4855 z"
       fill="#cbcbcb"
       fill-rule="evenodd"
       transform="matrix(1.0219,0,0,1,-61.8531,26)"
       id="path860" /><path
       d="m 18.9367,15.6656 h 0.9711 v 0.4855 h -0.9711 z"
       fill="#ffffff"
       fill-rule="evenodd"
       transform="matrix(1.0219,0,0,1,-61.8531,26)"
       id="path862" /><path
       d="m 18.9367,10.2733 h 0.4855 v 0.4856 h -0.4855 z"
       fill="#cbcbcb"
       fill-rule="evenodd"
       transform="matrix(1.0219,0,0,1,-61.8531,26)"
       id="path864" /><path
       d="m 19.4222,16.6367 h 0.4856 v 0.4855 h -0.4856 z"
       fill="#cbcbcb"
       fill-rule="evenodd"
       transform="matrix(1.0219,0,0,1,-61.8531,26)"
       id="path866" /><path
       d="m 18.4511,16.6367 h 0.9711 v 0.4855 h -0.9711 z"
       fill="#ffffff"
       fill-rule="evenodd"
       transform="matrix(1.0219,0,0,1,-61.8531,26)"
       id="path868" /><path
       d="m 18.4511,14.1833 h 0.9711 v 0.5111 h -0.9711 z"
       fill="#ffffff"
       fill-rule="evenodd"
       transform="matrix(1.0219,0,0,1,-61.8531,26)"
       id="path870" /><path
       d="m 18.9367,15.18 h 0.4855 v 0.4856 h -0.4855 z"
       fill="#cbcbcb"
       fill-rule="evenodd"
       transform="matrix(1.0219,0,0,1,-61.8531,26)"
       id="path872" /><path
       d="m 17.9656,15.18 h 0.9711 v 0.4856 h -0.9711 z"
       fill="#ffffff"
       fill-rule="evenodd"
       transform="matrix(1.0219,0,0,1,-61.8531,26)"
       id="path874" /><path
       d="m 18.4511,11.2444 h 0.4856 v 0.5112 h -0.4856 z"
       fill="#cbcbcb"
       fill-rule="evenodd"
       transform="matrix(1.0219,0,0,1,-61.8531,26)"
       id="path876" /><path
       d="m 18.4511,5.39222 h 0.4856 v 0.48556 h -0.4856 z"
       fill="#0099cc"
       fill-rule="evenodd"
       transform="matrix(1.0219,0,0,1,-61.8531,26)"
       id="path878" /><path
       d="m 17.9656,5.39222 h 0.4855 v 0.97111 h -0.4855 z"
       fill-rule="evenodd"
       transform="matrix(1.0219,0,0,1,-61.8531,26)"
       id="path880" /><path
       d="m 17.4544,9.30222 h 0.5112 v 0.97108 h -0.5112 z"
       fill-rule="evenodd"
       transform="matrix(1.0219,0,0,1,-61.8531,26)"
       id="path882" /><path
       d="m 18.4511,16.1511 h 0.4856 v 0.4856 h -0.4856 z"
       fill="#cbcbcb"
       fill-rule="evenodd"
       transform="matrix(1.0219,0,0,1,-61.8531,26)"
       id="path884" /><path
       d="m 17.4544,15.6656 h 0.5112 v 0.4855 h -0.5112 z"
       fill="#cbcbcb"
       fill-rule="evenodd"
       transform="matrix(1.0219,0,0,1,-61.8531,26)"
       id="path886" /><path
       d="m 17.4544,16.1511 h 0.9967 v 0.4856 h -0.9967 z"
       fill="#ffffff"
       fill-rule="evenodd"
       transform="matrix(1.0219,0,0,1,-61.8531,26)"
       id="path888" /><path
       d="m 17.9656,6.84889 h 0.4855 V 7.82 h -0.4855 z"
       fill="#00ffff"
       fill-rule="evenodd"
       transform="matrix(1.0219,0,0,1,-61.8531,26)"
       id="path890" /><path
       d="M 20.3933,10.7589 H 21.39 v 0.4855 h -0.9967 z"
       fill="#808080"
       fill-rule="evenodd"
       transform="matrix(1.0219,0,0,1,-61.8531,26)"
       id="path892" /><path
       d="m 19.4222,10.2733 h 0.9711 v 0.4856 h -0.9711 z"
       fill="#808080"
       fill-rule="evenodd"
       transform="matrix(1.0219,0,0,1,-61.8531,26)"
       id="path894" /><path
       d="m 18.4511,9.78778 h 0.9711 v 0.48552 h -0.9711 z"
       fill="#808080"
       fill-rule="evenodd"
       transform="matrix(1.0219,0,0,1,-61.8531,26)"
       id="path896" /><path
       d="m 18.9367,9.30222 h 0.4855 v 0.48556 h -0.4855 z"
       fill="#ffffff"
       fill-rule="evenodd"
       transform="matrix(1.0219,0,0,1,-61.8531,26)"
       id="path898" /><path
       d="m 18.9367,8.81667 h 0.9711 v 0.48555 h -0.9711 z"
       fill="#808080"
       fill-rule="evenodd"
       transform="matrix(1.0219,0,0,1,-61.8531,26)"
       id="path900" /><path
       d="m 19.4222,9.30222 h 0.4856 v 0.48556 h -0.4856 z"
       fill="#cbcbcb"
       fill-rule="evenodd"
       transform="matrix(1.0219,0,0,1,-61.8531,26)"
       id="path902" /><path
       d="m 19.9078,9.30222 h 0.9711 v 0.48556 h -0.9711 z"
       fill="#808080"
       fill-rule="evenodd"
       transform="matrix(1.0219,0,0,1,-61.8531,26)"
       id="path904" /><path
       d="m 20.3933,9.78778 h 0.5111 v 0.48552 h -0.5111 z"
       fill="#cbcbcb"
       fill-rule="evenodd"
       transform="matrix(1.0219,0,0,1,-61.8531,26)"
       id="path906" /><path
       d="m 20.9044,9.78778 h 0.9712 v 0.48552 h -0.9712 z"
       fill="#808080"
       fill-rule="evenodd"
       transform="matrix(1.0219,0,0,1,-61.8531,26)"
       id="path908" /><path
       d="m 21.39,8.81667 h 0.9711 V 9.30222 H 21.39 Z"
       fill="#808080"
       fill-rule="evenodd"
       transform="matrix(1.0219,0,0,1,-61.8531,26)"
       id="path910" /><path
       d="m 19.9078,8.30556 h 0.4855 v 0.51111 h -0.4855 z"
       fill="#cbcbcb"
       fill-rule="evenodd"
       transform="matrix(1.0219,0,0,1,-61.8531,26)"
       id="path912" /><path
       d="M 20.9044,8.81667 H 21.39 v 0.48555 h -0.4856 z"
       fill="#cbcbcb"
       fill-rule="evenodd"
       transform="matrix(1.0219,0,0,1,-61.8531,26)"
       id="path914" /><path
       d="M 20.3933,8.30556 H 21.39 v 0.51111 h -0.9967 z"
       fill="#808080"
       fill-rule="evenodd"
       transform="matrix(1.0219,0,0,1,-61.8531,26)"
       id="path916" /><path
       d="m 21.8756,11.7556 h 0.4855 v 0.4855 h -0.4855 z"
       fill="#cbcbcb"
       fill-rule="evenodd"
       transform="matrix(1.0219,0,0,1,-61.8531,26)"
       id="path918" /><path
       d="m 20.9044,11.7556 h 0.9712 v 0.4855 h -0.9712 z"
       fill="#ffffff"
       fill-rule="evenodd"
       transform="matrix(1.0219,0,0,1,-61.8531,26)"
       id="path920" /><path
       d="M 20.9044,11.2444 H 21.39 v 0.5112 h -0.4856 z"
       fill="#cbcbcb"
       fill-rule="evenodd"
       transform="matrix(1.0219,0,0,1,-61.8531,26)"
       id="path922" /><path
       d="m 19.9078,10.7589 h 0.4855 v 0.4855 h -0.4855 z"
       fill="#cbcbcb"
       fill-rule="evenodd"
       transform="matrix(1.0219,0,0,1,-61.8531,26)"
       id="path924" /><path
       d="m 19.9078,11.2444 h 0.9711 v 0.5112 h -0.9711 z"
       fill="#ffffff"
       fill-rule="evenodd"
       transform="matrix(1.0219,0,0,1,-61.8531,26)"
       id="path926" /><path
       d="m 19.9078,11.7556 h 0.9711 v 0.4855 h -0.9711 z"
       fill="#808080"
       fill-rule="evenodd"
       transform="matrix(1.0219,0,0,1,-61.8531,26)"
       id="path928" /><path
       d="m 17.9656,10.7589 h 0.9711 v 0.4855 h -0.9711 z"
       fill="#808080"
       fill-rule="evenodd"
       transform="matrix(1.0219,0,0,1,-61.8531,26)"
       id="path930" /><path
       d="m 24.8144,14.1833 h 0.9712 v 0.5111 h -0.9712 z"
       fill="#808080"
       fill-rule="evenodd"
       transform="matrix(1.0219,0,0,1,-61.8531,26)"
       id="path932" /><path
       d="m 20.3933,12.2411 h 0.5111 v 0.4856 h -0.5111 z"
       fill="#cbcbcb"
       fill-rule="evenodd"
       transform="matrix(1.0219,0,0,1,-61.8531,26)"
       id="path934" /><path
       d="m 20.9044,12.2411 h 0.9712 v 0.4856 h -0.9712 z"
       fill="#808080"
       fill-rule="evenodd"
       transform="matrix(1.0219,0,0,1,-61.8531,26)"
       id="path936" /><path
       d="m 22.8467,13.2122 h 0.9711 v 0.4856 h -0.9711 z"
       fill="#808080"
       fill-rule="evenodd"
       transform="matrix(1.0219,0,0,1,-61.8531,26)"
       id="path938" /><path
       d="m 22.3611,13.2122 h 0.4856 v 0.4856 h -0.4856 z"
       fill="#cbcbcb"
       fill-rule="evenodd"
       transform="matrix(1.0219,0,0,1,-61.8531,26)"
       id="path940" /><path
       d="m 21.39,12.7267 h 0.4856 v 0.4855 H 21.39 Z"
       fill="#cbcbcb"
       fill-rule="evenodd"
       transform="matrix(1.0219,0,0,1,-61.8531,26)"
       id="path942" /><path
       d="m 21.8756,12.7267 h 0.9711 v 0.4855 h -0.9711 z"
       fill="#808080"
       fill-rule="evenodd"
       transform="matrix(1.0219,0,0,1,-61.8531,26)"
       id="path944" /><path
       d="m 23.3322,13.6978 h 0.5111 v 0.4855 h -0.5111 z"
       fill="#cbcbcb"
       fill-rule="evenodd"
       transform="matrix(1.0219,0,0,1,-61.8531,26)"
       id="path946" /><path
       d="m 23.8178,13.6978 h 0.9966 v 0.4855 h -0.9966 z"
       fill="#808080"
       fill-rule="evenodd"
       transform="matrix(1.0219,0,0,1,-61.8531,26)"
       id="path948" /><path
       d="m 19.4222,11.7556 h 0.4856 v 0.4855 h -0.4856 z"
       fill="#cbcbcb"
       fill-rule="evenodd"
       transform="matrix(1.0219,0,0,1,-61.8531,26)"
       id="path950" /><path
       d="m 18.9367,11.2444 h 0.9711 v 0.5112 h -0.9711 z"
       fill="#808080"
       fill-rule="evenodd"
       transform="matrix(1.0219,0,0,1,-61.8531,26)"
       id="path952" /><path
       d="m 17.4544,5.87778 h 0.5112 v 0.48555 h -0.5112 z"
       fill="#b2b2b2"
       fill-rule="evenodd"
       transform="matrix(1.0219,0,0,1,-61.8531,26)"
       id="path954" /><path
       d="m 17.9656,6.36333 h 0.4855 v 0.48556 h -0.4855 z"
       fill="#0099cc"
       fill-rule="evenodd"
       transform="matrix(1.0219,0,0,1,-61.8531,26)"
       id="path956" /><path
       d="m 18.9367,7.82 h 0.4855 v 0.99667 h -0.4855 z"
       fill="#cbcbcb"
       fill-rule="evenodd"
       transform="matrix(1.0219,0,0,1,-61.8531,26)"
       id="path958" /><path
       d="m 16.4833,3.91 h 0.4856 v 3.91 h -0.4856 z"
       fill="#cbcbcb"
       fill-rule="evenodd"
       transform="matrix(1.0219,0,0,1,-61.8531,26)"
       id="path960" /><path
       d="m 13.5444,3.91 h 0.5112 v 0.48556 h -0.5112 z"
       fill="#b2b2b2"
       fill-rule="evenodd"
       transform="matrix(1.0219,0,0,1,-61.8531,26)"
       id="path962" /><path
       d="m 13.5444,4.39556 h 0.5112 v 0.99666 h -0.5112 z"
       fill-rule="evenodd"
       transform="matrix(1.0219,0,0,1,-61.8531,26)"
       id="path964" /><path
       d="m 13.0589,5.39222 h 0.4855 v 0.97111 h -0.4855 z"
       fill-rule="evenodd"
       transform="matrix(1.0219,0,0,1,-61.8531,26)"
       id="path966" /><path
       d="m 12.5733,6.36333 h 0.4856 v 0.97111 h -0.4856 z"
       fill-rule="evenodd"
       transform="matrix(1.0219,0,0,1,-61.8531,26)"
       id="path968" /><path
       d="m 15.5122,3.91 h 0.4856 v 6.3633 h -0.4856 z"
       fill="#0099cc"
       fill-rule="evenodd"
       transform="matrix(1.0219,0,0,1,-61.8531,26)"
       id="path970" /><path
       d="m 13.0589,6.36333 h 0.4855 v 0.48556 h -0.4855 z"
       fill="#0099cc"
       fill-rule="evenodd"
       transform="matrix(1.0219,0,0,1,-61.8531,26)"
       id="path972" /><path
       d="m 13.5444,5.39222 h 0.5112 v 0.48556 h -0.5112 z"
       fill="#0099cc"
       fill-rule="evenodd"
       transform="matrix(1.0219,0,0,1,-61.8531,26)"
       id="path974" /><path
       d="m 14.0556,4.39556 h 0.4855 v 0.51111 h -0.4855 z"
       fill="#0099cc"
       fill-rule="evenodd"
       transform="matrix(1.0219,0,0,1,-61.8531,26)"
       id="path976" /><path
       d="m 17.4544,8.80869 v 0.97975 h -0.4893 v 0.98196 h -0.4894 v 0.9797 h -0.4872 v 0.491 H 14.527 V 7.33797 H 13.5483 V 7.82672 H 13.0589 V 6.847 h 0.4894 V 5.8717 h 0.4893 V 4.88975 H 14.527 V 3.91 h 0.9721 v 6.3694 h 0.4894 V 9.78844 h 0.4872 V 9.29967 h 0.4894 V 8.80869 Z"
       fill="#00ffff"
       fill-rule="evenodd"
       transform="matrix(1.0219,0,0,1,-61.8531,26)"
       id="path978" /><path
       d="m 13.0589,4.90667 h 0.4855 v 0.48555 h -0.4855 z"
       fill="#b2b2b2"
       fill-rule="evenodd"
       transform="matrix(1.0219,0,0,1,-61.8531,26)"
       id="path980" /><path
       d="m 12.5733,9.30222 h 0.4856 v 0.97108 h -0.4856 z"
       fill-rule="evenodd"
       transform="matrix(1.0219,0,0,1,-61.8531,26)"
       id="path982" /><path
       d="m 14.0556,7.33444 h 0.4855 v 4.90666 h -0.4855 z"
       fill="#0099cc"
       fill-rule="evenodd"
       transform="matrix(1.0219,0,0,1,-61.8531,26)"
       id="path984" /><path
       d="m 16.4833,12.2358 v 0.4909 H 13.5494 V 9.29545 H 13.0589 V 8.31384 h 0.4905 v -0.9794 h 0.4904 v 4.90136 z"
       fill-rule="evenodd"
       transform="matrix(1.0219,0,0,1,-61.8531,26)"
       id="path986" /><path
       d="m 16.4833,11.2444 h 0.4856 v 0.9967 h -0.4856 z"
       fill-rule="evenodd"
       transform="matrix(1.0219,0,0,1,-61.8531,26)"
       id="path988" /><path
       d="m 16.9689,9.78778 h 0.4855 v 0.48552 h -0.4855 z"
       fill="#0099cc"
       fill-rule="evenodd"
       transform="matrix(1.0219,0,0,1,-61.8531,26)"
       id="path990" /><path
       d="m 16.4833,10.7589 h 0.4856 v 0.4855 h -0.4856 z"
       fill="#0099cc"
       fill-rule="evenodd"
       transform="matrix(1.0219,0,0,1,-61.8531,26)"
       id="path992" /><path
       d="m 17.4544,10.2733 h 0.5112 v 0.4856 h -0.5112 z"
       fill="#b2b2b2"
       fill-rule="evenodd"
       transform="matrix(1.0219,0,0,1,-61.8531,26)"
       id="path994" /><path
       d="m 16.9689,10.2733 h 0.4855 v 0.9711 h -0.4855 z"
       fill-rule="evenodd"
       transform="matrix(1.0219,0,0,1,-61.8531,26)"
       id="path996" /><path
       d="m 17.4544,7.82 h 0.5112 v 0.99667 h -0.5112 z"
       fill="#00ffff"
       fill-rule="evenodd"
       transform="matrix(1.0219,0,0,1,-61.8531,26)"
       id="path998" /><path
       d="m 17.4544,8.81667 h 0.5112 v 0.48555 h -0.5112 z"
       fill="#0099cc"
       fill-rule="evenodd"
       transform="matrix(1.0219,0,0,1,-61.8531,26)"
       id="path1000" /><path
       d="m 17.9656,9.78778 h 0.4855 v 0.97112 h -0.4855 z"
       fill="#cbcbcb"
       fill-rule="evenodd"
       transform="matrix(1.0219,0,0,1,-61.8531,26)"
       id="path1002" /><path
       d="m 17.9656,9.30222 h 0.4855 v 0.48556 h -0.4855 z"
       fill="#b2b2b2"
       fill-rule="evenodd"
       transform="matrix(1.0219,0,0,1,-61.8531,26)"
       id="path1004" /><path
       d="m 17.9656,8.30556 h 0.4855 v 0.99666 h -0.4855 z"
       fill-rule="evenodd"
       transform="matrix(1.0219,0,0,1,-61.8531,26)"
       id="path1006" /><path
       d="m 17.9656,7.82 h 0.4855 v 0.48556 h -0.4855 z"
       fill="#0099cc"
       fill-rule="evenodd"
       transform="matrix(1.0219,0,0,1,-61.8531,26)"
       id="path1008" /><path
       d="m 18.4511,6.84889 h 0.4856 v 0.48555 h -0.4856 z"
       fill="#0099cc"
       fill-rule="evenodd"
       transform="matrix(1.0219,0,0,1,-61.8531,26)"
       id="path1010" /><path
       d="m 18.4511,8.81667 h 0.4856 v 0.97111 h -0.4856 z"
       fill="#cbcbcb"
       fill-rule="evenodd"
       transform="matrix(1.0219,0,0,1,-61.8531,26)"
       id="path1012" /><path
       d="m 18.4511,8.30556 h 0.4856 v 0.51111 h -0.4856 z"
       fill="#b2b2b2"
       fill-rule="evenodd"
       transform="matrix(1.0219,0,0,1,-61.8531,26)"
       id="path1014" /><path
       d="m 18.4511,7.33444 h 0.4856 v 0.97112 h -0.4856 z"
       fill-rule="evenodd"
       transform="matrix(1.0219,0,0,1,-61.8531,26)"
       id="path1016" /><path
       d="m 16.9689,8.30556 h 0.4855 v 0.51111 h -0.4855 z"
       fill="#0099cc"
       fill-rule="evenodd"
       transform="matrix(1.0219,0,0,1,-61.8531,26)"
       id="path1018" /><path
       d="m 17.4544,7.33444 h 0.5112 V 7.82 h -0.5112 z"
       fill="#0099cc"
       fill-rule="evenodd"
       transform="matrix(1.0219,0,0,1,-61.8531,26)"
       id="path1020" /><path
       d="m 16.4833,7.82 h 0.4856 v 0.48556 h -0.4856 z"
       fill="#b2b2b2"
       fill-rule="evenodd"
       transform="matrix(1.0219,0,0,1,-61.8531,26)"
       id="path1022" /><path
       d="m 17.468,3.42258 v 1.47001 h 0.9794 V 5.38333 H 17.9588 V 5.87407 H 17.468 V 6.84889 H 16.9772 V 3.91332 H 16.4864 V 3.42258 H 15.9978 V 2.93186 h 0.4886 V 1.95259 h 0.4908 V 0.971111 H 17.468 V 1.46185 h 0.9794 v 0.49074 h 0.9816 v 0.49074 h 0.9794 V 2.93186 H 21.39 v 0.49072 z"
       fill="#ffffff"
       fill-rule="evenodd"
       transform="matrix(1.0219,0,0,1,-61.8531,26)"
       id="path1024" /><path
       d="m 16.9689,6.84889 h 0.4855 v 0.48555 h -0.4855 z"
       fill="#b2b2b2"
       fill-rule="evenodd"
       transform="matrix(1.0219,0,0,1,-61.8531,26)"
       id="path1026" /><path
       d="m 16.9689,7.33444 h 0.4855 v 0.97112 h -0.4855 z"
       fill-rule="evenodd"
       transform="matrix(1.0219,0,0,1,-61.8531,26)"
       id="path1028" /><path
       d="m 17.4544,10.7589 h 0.5112 v 0.9967 h -0.5112 z"
       fill="#cbcbcb"
       fill-rule="evenodd"
       transform="matrix(1.0219,0,0,1,-61.8531,26)"
       id="path1030" /><path
       d="m 16.9689,11.2444 h 0.4855 v 0.5112 h -0.4855 z"
       fill="#b2b2b2"
       fill-rule="evenodd"
       transform="matrix(1.0219,0,0,1,-61.8531,26)"
       id="path1032" /><path
       d="m 19.4222,12.7267 h 0.9711 v 0.4855 h -0.9711 z"
       fill="#808080"
       fill-rule="evenodd"
       transform="matrix(1.0219,0,0,1,-61.8531,26)"
       id="path1034" /><path
       d="m 22.3611,14.1833 h 0.9711 v 0.5111 h -0.9711 z"
       fill="#808080"
       fill-rule="evenodd"
       transform="matrix(1.0219,0,0,1,-61.8531,26)"
       id="path1036" /><path
       d="m 22.8467,14.6944 h 0.4855 V 15.18 h -0.4855 z"
       fill="#cbcbcb"
       fill-rule="evenodd"
       transform="matrix(1.0219,0,0,1,-61.8531,26)"
       id="path1038" /><path
       d="m 23.3322,14.6944 h 0.9967 V 15.18 h -0.9967 z"
       fill="#808080"
       fill-rule="evenodd"
       transform="matrix(1.0219,0,0,1,-61.8531,26)"
       id="path1040" /><path
       d="M 24.3289,15.18 H 25.3 v 0.4856 h -0.9711 z"
       fill="#808080"
       fill-rule="evenodd"
       transform="matrix(1.0219,0,0,1,-61.8531,26)"
       id="path1042" /><path
       d="m 16.9689,11.7556 h 0.4855 v 0.9711 h -0.4855 z"
       fill="#cbcbcb"
       fill-rule="evenodd"
       transform="matrix(1.0219,0,0,1,-61.8531,26)"
       id="path1044" /><path
       d="m 17.4544,11.7556 h 0.9967 v 0.4855 h -0.9967 z"
       fill="#808080"
       fill-rule="evenodd"
       transform="matrix(1.0219,0,0,1,-61.8531,26)"
       id="path1046" /><path
       d="m 21.8756,14.1833 h 0.4855 v 0.5111 h -0.4855 z"
       fill="#cbcbcb"
       fill-rule="evenodd"
       transform="matrix(1.0219,0,0,1,-61.8531,26)"
       id="path1048" /><path
       d="m 21.39,13.6978 h 0.9711 v 0.4855 H 21.39 Z"
       fill="#808080"
       fill-rule="evenodd"
       transform="matrix(1.0219,0,0,1,-61.8531,26)"
       id="path1050" /><path
       d="m 18.4511,12.2411 h 0.9711 v 0.4856 h -0.9711 z"
       fill="#808080"
       fill-rule="evenodd"
       transform="matrix(1.0219,0,0,1,-61.8531,26)"
       id="path1052" /><path
       d="m 19.9078,13.2122 h 0.4855 v 0.4856 h -0.4855 z"
       fill="#cbcbcb"
       fill-rule="evenodd"
       transform="matrix(1.0219,0,0,1,-61.8531,26)"
       id="path1054" /><path
       d="M 20.9044,13.6978 H 21.39 v 0.4855 h -0.4856 z"
       fill="#cbcbcb"
       fill-rule="evenodd"
       transform="matrix(1.0219,0,0,1,-61.8531,26)"
       id="path1056" /><path
       d="M 20.3933,13.2122 H 21.39 v 0.4856 h -0.9967 z"
       fill="#808080"
       fill-rule="evenodd"
       transform="matrix(1.0219,0,0,1,-61.8531,26)"
       id="path1058" /><path
       d="m 18.9367,12.7267 h 0.4855 v 0.4855 h -0.4855 z"
       fill="#cbcbcb"
       fill-rule="evenodd"
       transform="matrix(1.0219,0,0,1,-61.8531,26)"
       id="path1060" /><path
       d="m 17.9656,12.7267 h 0.9711 v 0.4855 h -0.9711 z"
       fill="#ffffff"
       fill-rule="evenodd"
       transform="matrix(1.0219,0,0,1,-61.8531,26)"
       id="path1062" /><path
       d="m 16.9689,12.7267 h 0.9967 v 0.4855 h -0.9967 z"
       fill="#808080"
       fill-rule="evenodd"
       transform="matrix(1.0219,0,0,1,-61.8531,26)"
       id="path1064" /><path
       d="m 18.9367,13.6978 h 0.9711 v 0.4855 h -0.9711 z"
       fill="#808080"
       fill-rule="evenodd"
       transform="matrix(1.0219,0,0,1,-61.8531,26)"
       id="path1066" /><path
       d="m 21.8756,15.18 h 0.9711 v 0.4856 h -0.9711 z"
       fill="#808080"
       fill-rule="evenodd"
       transform="matrix(1.0219,0,0,1,-61.8531,26)"
       id="path1068" /><path
       d="m 19.4222,14.1833 h 0.4856 v 0.5111 h -0.4856 z"
       fill="#cbcbcb"
       fill-rule="evenodd"
       transform="matrix(1.0219,0,0,1,-61.8531,26)"
       id="path1070" /><path
       d="m 19.9078,14.1833 h 0.9711 v 0.5111 h -0.9711 z"
       fill="#808080"
       fill-rule="evenodd"
       transform="matrix(1.0219,0,0,1,-61.8531,26)"
       id="path1072" /><path
       d="m 21.39,15.18 h 0.4856 v 0.4856 H 21.39 Z"
       fill="#cbcbcb"
       fill-rule="evenodd"
       transform="matrix(1.0219,0,0,1,-61.8531,26)"
       id="path1074" /><path
       d="m 20.3933,14.6944 h 0.5111 V 15.18 h -0.5111 z"
       fill="#cbcbcb"
       fill-rule="evenodd"
       transform="matrix(1.0219,0,0,1,-61.8531,26)"
       id="path1076" /><path
       d="m 20.9044,14.6944 h 0.9712 V 15.18 h -0.9712 z"
       fill="#808080"
       fill-rule="evenodd"
       transform="matrix(1.0219,0,0,1,-61.8531,26)"
       id="path1078" /><path
       d="m 22.3611,15.6656 h 0.4856 v 0.4855 h -0.4856 z"
       fill="#cbcbcb"
       fill-rule="evenodd"
       transform="matrix(1.0219,0,0,1,-61.8531,26)"
       id="path1080" /><path
       d="m 22.8467,15.6656 h 0.9711 v 0.4855 h -0.9711 z"
       fill="#808080"
       fill-rule="evenodd"
       transform="matrix(1.0219,0,0,1,-61.8531,26)"
       id="path1082" /><path
       d="m 23.8178,16.1511 h 0.9966 v 0.4856 h -0.9966 z"
       fill="#808080"
       fill-rule="evenodd"
       transform="matrix(1.0219,0,0,1,-61.8531,26)"
       id="path1084" /><path
       d="m 17.9656,13.2122 h 0.9711 v 0.4856 h -0.9711 z"
       fill="#808080"
       fill-rule="evenodd"
       transform="matrix(1.0219,0,0,1,-61.8531,26)"
       id="path1086" /><path
       d="m 16.4833,13.6978 h 0.9711 v 0.4855 h -0.9711 z"
       fill="#808080"
       fill-rule="evenodd"
       transform="matrix(1.0219,0,0,1,-61.8531,26)"
       id="path1088" /><path
       d="m 16.9689,14.6944 h 0.9967 V 15.18 h -0.9967 z"
       fill="#ffffff"
       fill-rule="evenodd"
       transform="matrix(1.0219,0,0,1,-61.8531,26)"
       id="path1090" /><path
       d="m 18.4511,13.6978 h 0.4856 v 0.4855 h -0.4856 z"
       fill="#cbcbcb"
       fill-rule="evenodd"
       transform="matrix(1.0219,0,0,1,-61.8531,26)"
       id="path1092" /><path
       d="m 17.4544,13.6978 h 0.9967 v 0.4855 h -0.9967 z"
       fill="#ffffff"
       fill-rule="evenodd"
       transform="matrix(1.0219,0,0,1,-61.8531,26)"
       id="path1094" /><path
       d="m 17.9656,14.6944 h 0.4855 V 15.18 h -0.4855 z"
       fill="#cbcbcb"
       fill-rule="evenodd"
       transform="matrix(1.0219,0,0,1,-61.8531,26)"
       id="path1096" /><path
       d="m 17.4544,14.1833 h 0.9967 v 0.5111 h -0.9967 z"
       fill="#808080"
       fill-rule="evenodd"
       transform="matrix(1.0219,0,0,1,-61.8531,26)"
       id="path1098" /><path
       d="m 12.5733,8.81667 h 0.4856 v 0.48555 h -0.4856 z"
       fill="#0099cc"
       fill-rule="evenodd"
       transform="matrix(1.0219,0,0,1,-61.8531,26)"
       id="path1100" /><path
       d="m 13.0589,7.82 h 0.4855 v 0.48556 h -0.4855 z"
       fill="#0099cc"
       fill-rule="evenodd"
       transform="matrix(1.0219,0,0,1,-61.8531,26)"
       id="path1102" /><path
       d="m 12.5733,7.82 h 0.4856 v 0.99667 h -0.4856 z"
       fill="#00ffff"
       fill-rule="evenodd"
       transform="matrix(1.0219,0,0,1,-61.8531,26)"
       id="path1104" /><path
       d="m 12.0878,10.2733 h 0.4855 v 0.9711 h -0.4855 z"
       fill-rule="evenodd"
       transform="matrix(1.0219,0,0,1,-61.8531,26)"
       id="path1106" /><path
       d="m 12.0878,8.30556 h 0.4855 v 0.51111 h -0.4855 z"
       fill="#0099cc"
       fill-rule="evenodd"
       transform="matrix(1.0219,0,0,1,-61.8531,26)"
       id="path1108" /><path
       d="m 12.5733,7.33444 h 0.4856 V 7.82 h -0.4856 z"
       fill="#0099cc"
       fill-rule="evenodd"
       transform="matrix(1.0219,0,0,1,-61.8531,26)"
       id="path1110" /><path
       d="m 11.6022,7.82 h 0.4856 v 0.48556 h -0.4856 z"
       fill="#b2b2b2"
       fill-rule="evenodd"
       transform="matrix(1.0219,0,0,1,-61.8531,26)"
       id="path1112" /><path
       d="m 12.0878,7.33444 h 0.4855 v 0.97112 h -0.4855 z"
       fill-rule="evenodd"
       transform="matrix(1.0219,0,0,1,-61.8531,26)"
       id="path1114" /><path
       d="m 12.0878,6.84889 h 0.4855 v 0.48555 h -0.4855 z"
       fill="#b2b2b2"
       fill-rule="evenodd"
       transform="matrix(1.0219,0,0,1,-61.8531,26)"
       id="path1116" /><path
       d="m 12.5733,5.87778 h 0.4856 v 0.48555 h -0.4856 z"
       fill="#b2b2b2"
       fill-rule="evenodd"
       transform="matrix(1.0219,0,0,1,-61.8531,26)"
       id="path1118" /><path
       d="m 11.6022,12.2411 h 0.4856 v 0.4856 h -0.4856 z"
       fill="#b2b2b2"
       fill-rule="evenodd"
       transform="matrix(1.0219,0,0,1,-61.8531,26)"
       id="path1120" /><path
       d="m 12.0878,11.7556 h 0.4855 v 0.9711 h -0.4855 z"
       fill="#cbcbcb"
       fill-rule="evenodd"
       transform="matrix(1.0219,0,0,1,-61.8531,26)"
       id="path1122" /><path
       d="m 13.0589,9.30222 h 0.4855 v 0.48556 h -0.4855 z"
       fill="#b2b2b2"
       fill-rule="evenodd"
       transform="matrix(1.0219,0,0,1,-61.8531,26)"
       id="path1124" /><path
       d="m 13.0589,9.78778 h 0.4855 v 0.97112 h -0.4855 z"
       fill="#cbcbcb"
       fill-rule="evenodd"
       transform="matrix(1.0219,0,0,1,-61.8531,26)"
       id="path1126" /><path
       d="m 12.5733,10.2733 h 0.4856 v 0.4856 h -0.4856 z"
       fill="#b2b2b2"
       fill-rule="evenodd"
       transform="matrix(1.0219,0,0,1,-61.8531,26)"
       id="path1128" /><path
       d="m 12.5733,10.7589 h 0.4856 v 0.9967 h -0.4856 z"
       fill="#cbcbcb"
       fill-rule="evenodd"
       transform="matrix(1.0219,0,0,1,-61.8531,26)"
       id="path1130" /><path
       d="m 12.0878,11.2444 h 0.4855 v 0.5112 h -0.4855 z"
       fill="#b2b2b2"
       fill-rule="evenodd"
       transform="matrix(1.0219,0,0,1,-61.8531,26)"
       id="path1132" /><path
       d="m 11.6022,11.2444 h 0.4856 v 0.9967 h -0.4856 z"
       fill-rule="evenodd"
       transform="matrix(1.0219,0,0,1,-61.8531,26)"
       id="path1134" /><path
       d="M 30.1926,7.82884 V 7.33871 H 29.2141 V 6.84861 H 28.2356 V 6.35848 H 27.2568 V 5.87502 H 26.2829 V 5.38491 H 25.3042 V 4.89478 H 24.3257 V 4.40468 H 23.3471 V 3.91455 H 22.3686 V 3.42444 H 21.39 v 0.49011 h 0.4904 v 1.46814 h -0.9786 v 0.4901 h 0.4904 v 0.48349 h 0.9786 v 0.4901 h 0.9785 V 7.8244 h -0.4992 v 0.97801 h -0.4904 v 0.97801 h -0.4904 v 0.97808 h -0.4904 v 0.4901 h 0.9786 v 0.4901 h 0.9785 v 0.4901 h 0.9786 v 0.4901 h 0.9785 v 0.4901 h 0.9785 v 0.4901 h -1.4688 v 0.4902 h 0.9784 v 0.4945 h -1.4688 v 0.4901 h 0.9785 V 15.664 H 23.822 v 0.4902 h 0.9785 v 0.4901 h -1.4689 v 0.4901 h 0.9786 v 0.4901 h -1.4601 v 0.4835 h 0.9785 v 0.4901 h -1.4689 v 0.4901 h 0.9786 v 0.4901 h -1.469 V 19.0882 H 20.8907 V 18.5981 H 19.9122 V 18.108 h -0.9785 v -0.4835 h -0.9786 v -0.4901 h -0.9786 v -0.4901 h -0.983 V 16.1542 H 15.5031 V 15.664 h 0.9786 v -0.4901 h -0.4882 v -0.4901 h 0.9786 v -0.4901 h -0.4904 v -0.4901 h 0.9786 v -0.4902 h -3.4216 v -0.4901 h -0.4904 v -1.9582 h -0.4904 v 0.978 h -0.4904 v 0.978 h -0.4904 v 0.4902 h -0.9786 v 0.4901 h -0.4881 v 0.9824 H 10.12 v 0.4901 h 0.9785 v 0.4901 h 0.9786 v 0.4902 h 0.9786 v 0.4901 h 0.9785 v 0.4901 h 0.9741 v 0.4901 h 0.9852 v 0.4835 h 0.9786 v 0.4901 h 0.9786 v 0.4901 h 0.9785 v 0.4901 h 0.9786 v 0.4901 h 0.9785 v 0.4901 h 0.9786 v 0.4902 h 0.9852 v 0.4901 h 0.9785 v 0.4901 h 0.4904 v -0.978 h 0.4904 v -0.978 h 0.4904 v -0.978 h 0.4904 v -0.9781 h 0.4904 v -0.9735 h 0.4837 v -0.9781 h 0.4904 v -0.978 h 0.4905 v -0.978 h 0.4904 v -0.978 h 0.4901 v -0.978 h 0.4904 v -0.978 h 0.4904 v -0.978 H 30.197 V 9.31914 h 0.4904 V 8.31895 h 0.4904 V 7.82884 Z M 28.7214,8.80908 H 28.231 v 0.97801 h -0.4904 v 0.97801 h -0.4905 v 0.978 h -0.4904 v 0.978 H 25.7858 V 12.231 h -0.9786 v -0.4901 h -0.9786 v -0.4901 h -0.9785 v -0.978 h 0.4904 V 9.29476 h 0.4904 V 8.31895 h 0.4903 V 7.34094 h 0.4904 V 6.36292 h 0.9786 v 0.49011 h 0.9741 v 0.49013 h 0.9786 v 0.4901 h 0.9785 z"
       fill="#ffffff"
       fill-rule="evenodd"
       transform="matrix(1.0219,0,0,1,-61.8531,26)"
       id="path1136" /><path
       d="m 21.8756,9.30222 h 0.4855 v 0.48556 h -0.4855 z"
       fill="#cbcbcb"
       fill-rule="evenodd"
       transform="matrix(1.0219,0,0,1,-61.8531,26)"
       id="path1138" /><path
       d="m 22.3611,8.30556 h 0.4856 v 0.51111 h -0.4856 z"
       fill="#cbcbcb"
       fill-rule="evenodd"
       transform="matrix(1.0219,0,0,1,-61.8531,26)"
       id="path1140" /><path
       d="m 22.8467,7.33444 h 0.4855 V 7.82 h -0.4855 z"
       fill="#cbcbcb"
       fill-rule="evenodd"
       transform="matrix(1.0219,0,0,1,-61.8531,26)"
       id="path1142" /><path
       d="m 21.39,10.2733 h 0.4856 v 0.4856 H 21.39 Z"
       fill="#cbcbcb"
       fill-rule="evenodd"
       transform="matrix(1.0219,0,0,1,-61.8531,26)"
       id="path1144" /><path
       d="M 24.8144,13.2122 H 25.3 v 0.4856 h -0.4856 z"
       fill="#cbcbcb"
       fill-rule="evenodd"
       transform="matrix(1.0219,0,0,1,-61.8531,26)"
       id="path1146" /><path
       d="m 24.3289,14.1833 h 0.4855 v 0.5111 h -0.4855 z"
       fill="#cbcbcb"
       fill-rule="evenodd"
       transform="matrix(1.0219,0,0,1,-61.8531,26)"
       id="path1148" /><path
       d="m 23.8178,15.18 h 0.5111 v 0.4856 h -0.5111 z"
       fill="#cbcbcb"
       fill-rule="evenodd"
       transform="matrix(1.0219,0,0,1,-61.8531,26)"
       id="path1150" /><path
       d="m 17.4544,13.2122 h 0.5112 v 0.4856 h -0.5112 z"
       fill="#cbcbcb"
       fill-rule="evenodd"
       transform="matrix(1.0219,0,0,1,-61.8531,26)"
       id="path1152" /><path
       d="m 23.3322,16.1511 h 0.5111 v 0.4856 h -0.5111 z"
       fill="#cbcbcb"
       fill-rule="evenodd"
       transform="matrix(1.0219,0,0,1,-61.8531,26)"
       id="path1154" /><path
       d="m 22.8467,17.1222 h 0.4855 v 0.4856 h -0.4855 z"
       fill="#cbcbcb"
       fill-rule="evenodd"
       transform="matrix(1.0219,0,0,1,-61.8531,26)"
       id="path1156" /><path
       d="m 16.9689,14.1833 h 0.4855 v 0.5111 h -0.4855 z"
       fill="#cbcbcb"
       fill-rule="evenodd"
       transform="matrix(1.0219,0,0,1,-61.8531,26)"
       id="path1158" /><path
       d="m 16.4833,15.18 h 0.4856 v 0.4856 h -0.4856 z"
       fill="#cbcbcb"
       fill-rule="evenodd"
       transform="matrix(1.0219,0,0,1,-61.8531,26)"
       id="path1160" /><path
       d="m 22.3611,18.0933 h 0.4856 v 0.5111 h -0.4856 z"
       fill="#cbcbcb"
       fill-rule="evenodd"
       transform="matrix(1.0219,0,0,1,-61.8531,26)"
       id="path1162" /><path
       d="m 19.9078,18.0933 h 0.4855 v 0.5111 h -0.4855 z"
       fill="#cbcbcb"
       fill-rule="evenodd"
       transform="matrix(1.0219,0,0,1,-61.8531,26)"
       id="path1164" /><path
       d="m 18.9367,17.6078 h 0.4855 v 0.4855 h -0.4855 z"
       fill="#cbcbcb"
       fill-rule="evenodd"
       transform="matrix(1.0219,0,0,1,-61.8531,26)"
       id="path1166" /><path
       d="m 17.9656,17.1222 h 0.4855 v 0.4856 h -0.4855 z"
       fill="#cbcbcb"
       fill-rule="evenodd"
       transform="matrix(1.0219,0,0,1,-61.8531,26)"
       id="path1168" /><path
       d="m 16.9689,16.6367 h 0.4855 v 0.4855 h -0.4855 z"
       fill="#cbcbcb"
       fill-rule="evenodd"
       transform="matrix(1.0219,0,0,1,-61.8531,26)"
       id="path1170" /><path
       d="m 15.9978,16.1511 h 0.4855 v 0.4856 h -0.4855 z"
       fill="#cbcbcb"
       fill-rule="evenodd"
       transform="matrix(1.0219,0,0,1,-61.8531,26)"
       id="path1172" /><path
       d="m 25.7856,10.2733 h 0.4855 v 0.4856 h -0.4855 z"
       fill="#996699"
       fill-rule="evenodd"
       transform="matrix(1.0219,0,0,1,-61.8531,26)"
       id="path1174" /><path
       d="m 25.7856,9.30222 h 0.4855 v 0.48556 h -0.4855 z"
       fill="#cc33cc"
       fill-rule="evenodd"
       transform="matrix(1.0219,0,0,1,-61.8531,26)"
       id="path1176" /><path
       d="m 25.7856,8.81667 h 0.4855 v 0.48555 h -0.4855 z"
       fill="#993399"
       fill-rule="evenodd"
       transform="matrix(1.0219,0,0,1,-61.8531,26)"
       id="path1178" /><path
       d="m 25.7856,9.78778 h 0.4855 v 0.48552 h -0.4855 z"
       fill="#ff33cc"
       fill-rule="evenodd"
       transform="matrix(1.0219,0,0,1,-61.8531,26)"
       id="path1180" /><path
       d="m 25.3,9.30222 h 0.4856 V 9.78778 H 25.3 Z"
       fill="#ff33cc"
       fill-rule="evenodd"
       transform="matrix(1.0219,0,0,1,-61.8531,26)"
       id="path1182" /><path
       d="m 26.2711,9.30222 h 0.4856 v 0.48556 h -0.4856 z"
       fill="#ff33cc"
       fill-rule="evenodd"
       transform="matrix(1.0219,0,0,1,-61.8531,26)"
       id="path1184" /><path
       d="m 25.7856,11.2444 h 0.4855 v 0.5112 h -0.4855 z"
       fill="#333399"
       fill-rule="evenodd"
       transform="matrix(1.0219,0,0,1,-61.8531,26)"
       id="path1186" /><path
       d="m 26.2711,10.7589 h 0.4856 v 0.4855 h -0.4856 z"
       fill="#336699"
       fill-rule="evenodd"
       transform="matrix(1.0219,0,0,1,-61.8531,26)"
       id="path1188" /><path
       d="m 25.3,8.30556 h 0.4856 V 8.81667 H 25.3 Z"
       fill="#666699"
       fill-rule="evenodd"
       transform="matrix(1.0219,0,0,1,-61.8531,26)"
       id="path1190" /><path
       d="m 26.7567,8.81667 h 0.4855 v 0.48555 h -0.4855 z"
       fill="#336699"
       fill-rule="evenodd"
       transform="matrix(1.0219,0,0,1,-61.8531,26)"
       id="path1192" /><path
       d="m 26.7567,10.2733 h 0.4855 v 0.4856 h -0.4855 z"
       fill="#3366cc"
       fill-rule="evenodd"
       transform="matrix(1.0219,0,0,1,-61.8531,26)"
       id="path1194" /><path
       d="m 27.2422,9.30222 h 0.5111 v 0.48556 h -0.5111 z"
       fill="#3366cc"
       fill-rule="evenodd"
       transform="matrix(1.0219,0,0,1,-61.8531,26)"
       id="path1196" /><path
       d="m 27.7533,8.30556 h 0.4856 v 0.51111 h -0.4856 z"
       fill="#006666"
       fill-rule="evenodd"
       transform="matrix(1.0219,0,0,1,-61.8531,26)"
       id="path1198" /><path
       d="m 27.2422,7.82 h 0.5111 v 0.48556 h -0.5111 z"
       fill="#3366cc"
       fill-rule="evenodd"
       transform="matrix(1.0219,0,0,1,-61.8531,26)"
       id="path1200" /><path
       d="m 26.2711,7.33444 h 0.4856 V 7.82 h -0.4856 z"
       fill="#3366cc"
       fill-rule="evenodd"
       transform="matrix(1.0219,0,0,1,-61.8531,26)"
       id="path1202" /><path
       d="m 25.3,6.84889 h 0.4856 V 7.33444 H 25.3 Z"
       fill="#3366cc"
       fill-rule="evenodd"
       transform="matrix(1.0219,0,0,1,-61.8531,26)"
       id="path1204" /><path
       d="m 24.3289,8.30556 h 0.4855 v 0.51111 h -0.4855 z"
       fill="#336699"
       fill-rule="evenodd"
       transform="matrix(1.0219,0,0,1,-61.8531,26)"
       id="path1206" /><path
       d="M 24.8144,7.33444 H 25.3 V 7.82 h -0.4856 z"
       fill="#336699"
       fill-rule="evenodd"
       transform="matrix(1.0219,0,0,1,-61.8531,26)"
       id="path1208" /><path
       d="m 25.3,7.82 h 0.4856 V 8.30556 H 25.3 Z"
       fill="#006666"
       fill-rule="evenodd"
       transform="matrix(1.0219,0,0,1,-61.8531,26)"
       id="path1210" /><path
       d="M 24.8144,8.30556 H 25.3 v 0.51111 h -0.4856 z"
       fill="#006666"
       fill-rule="evenodd"
       transform="matrix(1.0219,0,0,1,-61.8531,26)"
       id="path1212" /><path
       d="m 24.3289,9.30222 h 0.4855 v 0.48556 h -0.4855 z"
       fill="#006666"
       fill-rule="evenodd"
       transform="matrix(1.0219,0,0,1,-61.8531,26)"
       id="path1214" /><path
       d="m 25.7856,10.7589 h 0.4855 v 0.4855 h -0.4855 z"
       fill="#006666"
       fill-rule="evenodd"
       transform="matrix(1.0219,0,0,1,-61.8531,26)"
       id="path1216" /><path
       d="m 25.3,11.2444 h 0.4856 v 0.5112 H 25.3 Z"
       fill="#006666"
       fill-rule="evenodd"
       transform="matrix(1.0219,0,0,1,-61.8531,26)"
       id="path1218" /><path
       d="m 23.8178,10.7589 h 0.5111 v 0.4855 h -0.5111 z"
       fill="#5f5f5f"
       fill-rule="evenodd"
       transform="matrix(1.0219,0,0,1,-61.8531,26)"
       id="path1220" /><path
       d="M 24.8144,9.78778 H 25.3 v 0.97112 h -0.4856 z"
       fill="#9900ff"
       fill-rule="evenodd"
       transform="matrix(1.0219,0,0,1,-61.8531,26)"
       id="path1222" /><path
       d="m 25.3,9.78778 h 0.4856 V 10.7589 H 25.3 Z"
       fill="#cc00ff"
       fill-rule="evenodd"
       transform="matrix(1.0219,0,0,1,-61.8531,26)"
       id="path1224" /><path
       d="m 24.3289,10.2733 h 0.4855 v 0.4856 h -0.4855 z"
       fill="#cc00cc"
       fill-rule="evenodd"
       transform="matrix(1.0219,0,0,1,-61.8531,26)"
       id="path1226" /><path
       d="m 23.8178,9.78778 h 0.5111 v 0.48552 h -0.5111 z"
       fill="#cc3399"
       fill-rule="evenodd"
       transform="matrix(1.0219,0,0,1,-61.8531,26)"
       id="path1228" /><path
       d="m 23.8178,9.30222 h 0.5111 v 0.48556 h -0.5111 z"
       fill="#336699"
       fill-rule="evenodd"
       transform="matrix(1.0219,0,0,1,-61.8531,26)"
       id="path1230" /><path
       d="m 23.8178,10.2733 h 0.5111 v 0.4856 h -0.5111 z"
       fill="#336699"
       fill-rule="evenodd"
       transform="matrix(1.0219,0,0,1,-61.8531,26)"
       id="path1232" /><path
       d="m 23.3322,10.2733 h 0.5111 v 0.4856 h -0.5111 z"
       fill="#339999"
       fill-rule="evenodd"
       transform="matrix(1.0219,0,0,1,-61.8531,26)"
       id="path1234" /><path
       d="M 24.8144,11.2444 H 25.3 v 0.5112 h -0.4856 z"
       fill="#339999"
       fill-rule="evenodd"
       transform="matrix(1.0219,0,0,1,-61.8531,26)"
       id="path1236" /><path
       d="m 26.2711,11.2444 h 0.4856 v 0.5112 h -0.4856 z"
       fill="#339999"
       fill-rule="evenodd"
       transform="matrix(1.0219,0,0,1,-61.8531,26)"
       id="path1238" /><path
       d="m 25.7856,11.7556 h 0.4855 v 0.4855 h -0.4855 z"
       fill="#339999"
       fill-rule="evenodd"
       transform="matrix(1.0219,0,0,1,-61.8531,26)"
       id="path1240" /><path
       d="m 27.2422,9.30222 v 0.97038 h -0.4866 v 0.4863 H 26.2711 V 9.78632 h 0.4845 v -0.4841 z"
       fill="#006666"
       fill-rule="evenodd"
       transform="matrix(1.0219,0,0,1,-61.8531,26)"
       id="path1242" /><path
       d="M 27.2422,8.30556 V 8.80389 H 26.7567 V 9.30222 H 26.2734 V 8.80389 H 25.7856 V 8.30556 Z"
       fill="#006666"
       fill-rule="evenodd"
       transform="matrix(1.0219,0,0,1,-61.8531,26)"
       id="path1244" /><path
       d="M 25.7856,8.81667 V 9.30332 H 25.3011 V 9.78778 H 24.8144 V 8.81667 Z"
       fill="#cc33cc"
       fill-rule="evenodd"
       transform="matrix(1.0219,0,0,1,-61.8531,26)"
       id="path1246" /><path
       d="m 24.3289,9.78778 h 0.4855 v 0.48552 h -0.4855 z"
       fill="#cc33cc"
       fill-rule="evenodd"
       transform="matrix(1.0219,0,0,1,-61.8531,26)"
       id="path1248" /><path
       d="m 24.3289,10.7589 h 1.4567 v 0.4855 h -1.4567 z"
       fill="#cc33cc"
       fill-rule="evenodd"
       transform="matrix(1.0219,0,0,1,-61.8531,26)"
       id="path1250" /><path
       d="m 24.3289,8.81667 h 0.4855 v 0.48555 h -0.4855 z"
       fill="#009966"
       fill-rule="evenodd"
       transform="matrix(1.0219,0,0,1,-61.8531,26)"
       id="path1252" /><path
       d="M 24.8144,7.82 H 25.3 v 0.48556 h -0.4856 z"
       fill="#009966"
       fill-rule="evenodd"
       transform="matrix(1.0219,0,0,1,-61.8531,26)"
       id="path1254" /><path
       d="m 27.2422,8.30556 h 0.5111 v 0.99666 h -0.5111 z"
       fill="#009966"
       fill-rule="evenodd"
       transform="matrix(1.0219,0,0,1,-61.8531,26)"
       id="path1256" /><path
       d="M 27.2422,7.8189 V 8.30556 H 25.7856 V 7.8189 H 25.3 V 7.33444 h 0.9734 V 7.8189 Z"
       fill="#009966"
       fill-rule="evenodd"
       transform="matrix(1.0219,0,0,1,-61.8531,26)"
       id="path1258" /><path
       d="m 24.8144,11.7556 h 0.9712 v 0.4855 h -0.9712 z"
       fill="#808080"
       fill-rule="evenodd"
       transform="matrix(1.0219,0,0,1,-61.8531,26)"
       id="path1260" /><path
       d="m 23.8178,11.2444 h 0.9966 v 0.5112 h -0.9966 z"
       fill="#808080"
       fill-rule="evenodd"
       transform="matrix(1.0219,0,0,1,-61.8531,26)"
       id="path1262" /><path
       d="m 23.8178,10.7589 v 0.4855 h -0.9711 v -0.9711 h 0.4866 v 0.4856 z"
       fill="#808080"
       fill-rule="evenodd"
       transform="matrix(1.0219,0,0,1,-61.8531,26)"
       id="path1264" /><path
       d="m 23.3322,9.30222 h 0.5111 v 0.97108 h -0.5111 z"
       fill="#808080"
       fill-rule="evenodd"
       transform="matrix(1.0219,0,0,1,-61.8531,26)"
       id="path1266" /><path
       d="m 23.8178,8.30556 h 0.5111 v 0.99666 h -0.5111 z"
       fill="#808080"
       fill-rule="evenodd"
       transform="matrix(1.0219,0,0,1,-61.8531,26)"
       id="path1268" /><path
       d="m 24.3289,7.33444 h 0.4855 v 0.97112 h -0.4855 z"
       fill="#808080"
       fill-rule="evenodd"
       transform="matrix(1.0219,0,0,1,-61.8531,26)"
       id="path1270" /><path
       d="M 25.7856,6.36333 V 6.84889 H 25.3011 V 7.33444 H 24.8144 V 6.36333 Z"
       fill="#808080"
       fill-rule="evenodd"
       transform="matrix(1.0219,0,0,1,-61.8531,26)"
       id="path1272" /><path
       d="m 25.7856,6.84889 h 0.9711 v 0.48555 h -0.9711 z"
       fill="#808080"
       fill-rule="evenodd"
       transform="matrix(1.0219,0,0,1,-61.8531,26)"
       id="path1274" /><path
       d="m 26.7567,7.33444 h 0.9966 V 7.82 h -0.9966 z"
       fill="#808080"
       fill-rule="evenodd"
       transform="matrix(1.0219,0,0,1,-61.8531,26)"
       id="path1276" /><path
       d="M 28.7244,7.82 V 8.81667 H 28.2399 V 8.31833 H 27.7533 V 7.82 Z"
       fill="#808080"
       fill-rule="evenodd"
       transform="matrix(1.0219,0,0,1,-61.8531,26)"
       id="path1278" /><path
       d="m 27.7533,8.81667 h 0.4856 v 0.97111 h -0.4856 z"
       fill="#808080"
       fill-rule="evenodd"
       transform="matrix(1.0219,0,0,1,-61.8531,26)"
       id="path1280" /><path
       d="m 27.2422,9.78778 h 0.5111 v 0.97112 h -0.5111 z"
       fill="#808080"
       fill-rule="evenodd"
       transform="matrix(1.0219,0,0,1,-61.8531,26)"
       id="path1282" /><path
       d="m 26.7567,10.7589 h 0.4855 v 0.9967 h -0.4855 z"
       fill="#808080"
       fill-rule="evenodd"
       transform="matrix(1.0219,0,0,1,-61.8531,26)"
       id="path1284" /><path
       d="m 26.7567,11.7556 v 0.9711 h -0.9711 v -0.4856 h 0.4878 v -0.4855 z"
       fill="#808080"
       fill-rule="evenodd"
       transform="matrix(1.0219,0,0,1,-61.8531,26)"
       id="path1286" /><path
       d="m 16.4833,12.2411 h 0.4856 v 0.4856 h -0.4856 z"
       fill="#b2b2b2"
       fill-rule="evenodd"
       transform="matrix(1.0219,0,0,1,-61.8531,26)"
       id="path1288" /><path
       d="m 14.0556,12.7267 h 2.9133 v 0.4855 h -2.9133 z"
       fill="#cbcbcb"
       fill-rule="evenodd"
       transform="matrix(1.0219,0,0,1,-61.8531,26)"
       id="path1290" /><path
       d="M 21.8756,3.91 V 5.38527 H 20.8882 V 5.87778 H 20.3933 V 4.89276 H 21.383 V 3.91 Z"
       fill="#cbcbcb"
       fill-rule="evenodd"
       transform="matrix(1.0219,0,0,1,-61.8531,26)"
       id="path1292" /><path
       d="m 19.4222,6.36333 h 0.4856 v 0.48556 h -0.4856 z"
       fill="#b2b2b2"
       fill-rule="evenodd"
       transform="matrix(1.0219,0,0,1,-61.8531,26)"
       id="path1294" /><path
       d="M 20.9044,18.6044 H 21.39 V 19.09 h -0.4856 z"
       fill="#cbcbcb"
       fill-rule="evenodd"
       transform="matrix(1.0219,0,0,1,-61.8531,26)"
       id="path1296" /><path
       d="m 21.39,18.6044 h 0.9711 V 19.09 H 21.39 Z"
       fill="#808080"
       fill-rule="evenodd"
       transform="matrix(1.0219,0,0,1,-61.8531,26)"
       id="path1298" /><path
       d="m 21.8756,19.09 h 0.4855 v 0.4856 h -0.4855 z"
       fill="#cbcbcb"
       fill-rule="evenodd"
       transform="matrix(1.0219,0,0,1,-61.8531,26)"
       id="path1300" /><path
       d="m 22.3611,19.09 h 0.9711 v 0.4856 h -0.9711 z"
       fill="#808080"
       fill-rule="evenodd"
       transform="matrix(1.0219,0,0,1,-61.8531,26)"
       id="path1302" /><path
       d="m 10.6056,4.39556 h 0.5111 v 5.87774 h -0.5111 z"
       fill="#0099cc"
       fill-rule="evenodd"
       transform="matrix(1.0219,0,0,1,-61.8531,26)"
       id="path1304" /><path
       d="m 11.6022,9.30222 h 0.4856 v 0.48556 h -0.4856 z"
       fill="#0099cc"
       fill-rule="evenodd"
       transform="matrix(1.0219,0,0,1,-61.8531,26)"
       id="path1306" /><path
       d="m 11.1167,11.7556 h 0.4855 v 0.4855 h -0.4855 z"
       fill="#0099cc"
       fill-rule="evenodd"
       transform="matrix(1.0219,0,0,1,-61.8531,26)"
       id="path1308" /><path
       d="m 11.6022,10.7589 h 0.4856 v 0.4855 h -0.4856 z"
       fill="#0099cc"
       fill-rule="evenodd"
       transform="matrix(1.0219,0,0,1,-61.8531,26)"
       id="path1310" /><path
       d="m 12.0878,9.78778 h 0.4855 v 0.48552 h -0.4855 z"
       fill="#0099cc"
       fill-rule="evenodd"
       transform="matrix(1.0219,0,0,1,-61.8531,26)"
       id="path1312" /><path
       d="m 10.6183,4.40097 v 5.87843 h 0.4906 V 9.78844 h 0.9789 v 0.98196 h -0.4906 v 0.9797 h -0.4883 v 0.491 H 9.63723 V 4.40097 H 9.14889 V 3.91 h 2.93891 v 0.49097 z"
       fill="#00ffff"
       fill-rule="evenodd"
       transform="matrix(1.0219,0,0,1,-61.8531,26)"
       id="path1314" /><path
       d="m 11.1167,12.7267 h 0.9711 v 0.4855 h -0.9711 z"
       fill="#cbcbcb"
       fill-rule="evenodd"
       transform="matrix(1.0219,0,0,1,-61.8531,26)"
       id="path1316" /><path
       d="m 17.4544,12.2411 h 0.5112 v 0.4856 h -0.5112 z"
       fill="#ffffff"
       fill-rule="evenodd"
       transform="matrix(1.0219,0,0,1,-61.8531,26)"
       id="path1318" /><path
       d="m 17.9656,12.2411 h 0.4855 v 0.4856 h -0.4855 z"
       fill="#cbcbcb"
       fill-rule="evenodd"
       transform="matrix(1.0219,0,0,1,-61.8531,26)"
       id="path1320" /><path
       d="m 19.9078,5.39222 h 0.4855 v 0.48556 h -0.4855 z"
       fill="#b2b2b2"
       fill-rule="evenodd"
       transform="matrix(1.0219,0,0,1,-61.8531,26)"
       id="path1322" /><path
       d="m 19.9078,5.87778 h 0.4855 v 0.97111 h -0.4855 z"
       fill="#cbcbcb"
       fill-rule="evenodd"
       transform="matrix(1.0219,0,0,1,-61.8531,26)"
       id="path1324" /><path
       d="m 15.9978,11.7556 h 0.4855 v 0.4855 h -0.4855 z"
       fill="#0099cc"
       fill-rule="evenodd"
       transform="matrix(1.0219,0,0,1,-61.8531,26)"
       id="path1326" /></g></svg>
